# xmcd CD database file
#
# Track frame offsets:
#	150
#	13734
#	31951
#	68421
#	85604
#	114964
#	122613
#	144957
#	160197
#	177807
#
# Disc length: 2497 seconds
#
# Revision: 0
# Processed by: cddbd v1.5.1PL0 Copyright (c) Steve Scherf et al.
# Submitted via: CDex 1.51
#
DISCID=6c09bf0a
DTITLE=Amanda Rogers - The Places You Dwell
DYEAR=1900
DGENRE=IndieRock
TTITLE0=And She Wanted
TTITLE1=My Golden Thread
TTITLE2=With Eyes Open Wide
TTITLE3=This Beauty
TTITLE4=Priceless
TTITLE5=Sunshine
TTITLE6=Silhouette
TTITLE7=Can't Sleep, Can't Love, Awake
TTITLE8=Divide and Separate
TTITLE9=Waltz
EXTD=
EXTT0=
EXTT1=
EXTT2=
EXTT3=
EXTT4=
EXTT5=
EXTT6=
EXTT7=
EXTT8=
EXTT9=
PLAYORDER=
